<svg xmlns="http://www.w3.org/2000/svg" xmlns:xlink="http://www.w3.org/1999/xlink" style="width:0;height:0;visibility:hidden;">
    <defs/>
    <symbol id="rd-icon-spotter" viewBox="0 0 42 42" fill="none">
        <path d="M37.7393 0C40.1863 0.000133508 41.9961 1.7912 41.999 4.2334C42.0041 8.8686 42.0007 13.5044 41.999 18.1396C41.9986 19.0981 41.5947 19.5006 40.6465 19.501C39.7855 19.5014 38.9243 19.5031 38.0635 19.501C37.2176 19.4989 36.7991 19.0833 36.7988 18.2432C36.7974 14.292 36.798 10.3408 36.7969 6.38965C36.7965 5.55539 36.451 5.20133 35.6211 5.20117C25.8554 5.19925 16.0899 5.19941 6.32422 5.2002C5.56511 5.20026 5.2042 5.56562 5.2041 6.33301C5.20282 16.0751 5.20204 25.8175 5.20312 35.5596C5.2033 36.4598 5.54568 36.7967 6.44238 36.7969C10.3817 36.7973 14.3215 36.7972 18.2607 36.7979C19.0966 36.798 19.5009 37.1978 19.5029 38.0283C19.505 38.9365 19.5046 39.8448 19.5029 40.7529C19.5014 41.5354 19.0991 41.9563 18.3203 41.9941C18.2617 41.9969 18.2024 41.9951 18.1436 41.9951C13.5438 41.9957 8.94352 42.0049 4.34375 41.9932C2.56549 41.9886 1.20956 41.2325 0.405273 39.6074C0.125393 39.0419 -4.09189e-05 38.4313 1.00129e-08 37.7959C0.00098301 26.603 0.000305573 15.4097 0.000976573 4.2168C0.00124927 1.79795 1.80632 0.000603256 4.23145 0H37.7393Z" fill="#0161FE"/>
        <path d="M30.709 19.4297C31.0638 19.4407 31.1974 19.7063 31.3105 19.9932C31.9375 21.5817 32.5369 23.1827 33.207 24.7529C33.9303 26.4469 35.1899 27.624 36.9043 28.3057C38.4368 28.9151 39.9698 29.5248 41.5068 30.123C41.7934 30.2348 41.972 30.4137 41.9746 30.7158C41.9771 31.0155 41.7702 31.1652 41.5078 31.2686C39.9954 31.8644 38.4886 32.4752 36.9736 33.0645C35.1242 33.7837 33.832 35.0619 33.0928 36.8975C32.5032 38.3616 31.9267 39.8316 31.3447 41.2988C31.3056 41.3973 31.2698 41.4976 31.2275 41.5947C31.1238 41.8334 30.9429 41.9726 30.6797 41.9678C30.4325 41.9633 30.2574 41.833 30.165 41.6016C29.8025 40.6936 29.4409 39.7852 29.0791 38.877C28.7913 38.1547 28.5214 37.4242 28.2129 36.7109C27.4649 34.981 26.2004 33.7762 24.4502 33.0801C22.9505 32.4836 21.45 31.8881 19.9502 31.292C19.7153 31.1986 19.4931 31.0954 19.4512 30.8008C19.4023 30.4572 19.5317 30.2709 19.9541 30.1025C21.3441 29.5488 22.7349 28.9958 24.125 28.4424C24.1687 28.4249 24.2119 28.4065 24.2812 28.3809C26.2553 27.6255 27.6027 26.2806 28.3564 24.3311C28.9213 22.87 29.5122 21.4184 30.0889 19.9619C30.2035 19.6724 30.3512 19.4186 30.709 19.4297Z" fill="#0161FE"/>
    </symbol>
    <symbol id="rd-icon-spotter2" viewBox="0 0 259 50" fill="none">
        <path d="M14.5281 0.000228882C22.2888 0.00030899 30.0141 0.000217438 37.7395 0.000629425C40.1867 0.000762939 41.9962 1.79209 41.9989 4.23447C42.004 8.86967 42.0005 13.5049 41.9988 18.1401C41.9985 19.0987 41.5949 19.5017 40.6466 19.5021C39.7856 19.5025 38.9246 19.504 38.0637 19.5019C37.2177 19.4999 36.7991 19.0841 36.7988 18.2439C36.7974 14.2927 36.7977 10.3416 36.7966 6.39049C36.7963 5.55614 36.4513 5.20201 35.6214 5.20185C25.8556 5.19993 16.0899 5.19968 6.32409 5.20047C5.56498 5.20053 5.2041 5.56601 5.204 6.3334C5.20272 16.0756 5.2024 25.8178 5.20349 35.56C5.20359 36.4606 5.5457 36.7974 6.44282 36.7975C10.3822 36.7979 14.3215 36.7976 18.2608 36.7983C19.0967 36.7984 19.5009 37.1985 19.5029 38.0291C19.505 38.9373 19.5047 39.8455 19.503 40.7536C19.5015 41.5362 19.099 41.9571 18.32 41.9948C18.2612 41.9976 18.2021 41.9962 18.1431 41.9962C13.5433 41.9968 8.94347 42.0057 4.34368 41.994C2.5653 41.9894 1.20963 41.233 0.405365 39.6077C0.125468 39.0421 -5.59813e-05 38.4319 1.87288e-08 37.7965C0.000983019 26.6036 -0.000163981 15.4107 0.000507019 4.21777C0.000652019 1.79866 1.80643 0.000679016 4.23184 0.000270844C7.65212 -0.000301361 11.0724 0.000205994 14.5281 0.000228882Z" fill="#0161FE"/>
        <path d="M24.2817 28.3814C26.2558 27.626 27.6024 26.2817 28.3561 24.3322C28.921 22.871 29.5118 21.4197 30.0885 19.963C30.2032 19.6733 30.3508 19.4192 30.7088 19.4303C31.0638 19.4412 31.197 19.7065 31.3102 19.9934C31.9372 21.5821 32.5364 23.1828 33.2066 24.7532C33.9298 26.4475 35.1894 27.625 36.904 28.3067C38.4366 28.9162 39.9695 29.5251 41.5066 30.1234C41.7934 30.2351 41.9716 30.4142 41.9742 30.7164C41.9768 31.0163 41.7701 31.166 41.5076 31.2694C39.995 31.8653 38.4883 32.4763 36.9732 33.0656C35.1237 33.7849 33.8316 35.0626 33.0924 36.8983C32.5028 38.3625 31.9267 39.8323 31.3447 41.2996C31.3056 41.3981 31.2695 41.498 31.2272 41.5951C31.1234 41.8339 30.9429 41.9736 30.6795 41.9687C30.4323 41.9642 30.2579 41.8337 30.1655 41.6023C29.8029 40.6943 29.4412 39.7859 29.0794 38.8776C28.7916 38.1553 28.5217 37.4253 28.2132 36.712C27.4652 34.9818 26.2004 33.777 24.45 33.0808C22.9503 32.4843 21.4502 31.8888 19.9504 31.2927C19.7154 31.1993 19.4931 31.0963 19.4512 30.8016C19.4023 30.4579 19.5317 30.2716 19.9544 30.1032C21.3444 29.5495 22.7347 28.9963 24.1248 28.4429C24.1686 28.4254 24.212 28.4071 24.2817 28.3814Z" fill="#0161FE"/>
        <path fill-rule="evenodd" clip-rule="evenodd" d="M214.191 31.5584H208.979L208.914 31.7909C208.67 32.6911 208.031 33.9957 206.763 35.078C205.494 36.15 203.575 37.0199 200.749 37.0199C197.681 37.0199 195.42 35.8971 193.908 34.1879C192.458 32.5394 191.69 30.3346 191.637 28.0186H214.554V27.7152C214.554 22.7896 213.434 18.805 211.132 16.0439C208.819 13.2626 205.334 11.7657 200.697 11.7657C196.391 11.7657 192.809 13.1311 190.316 15.6798C187.82 18.2283 186.435 21.9401 186.435 26.5825C186.435 30.9618 187.789 34.6634 190.294 37.2828C192.798 39.9022 196.432 41.3992 200.921 41.3992C204.597 41.3992 207.519 40.3574 209.704 38.6381C211.889 36.9289 213.327 34.5622 214.085 31.9426L214.191 31.5584ZM200.697 16.1349C195.516 16.1349 191.818 19.5229 191.637 23.619H209.352C209.192 19.5028 205.856 16.1349 200.697 16.1349Z" fill="#051857"/>
        <path fill-rule="evenodd" clip-rule="evenodd" d="M108.675 1.00006H103.349V40.4131H108.675V1.00006Z" fill="#051857"/>
        <path d="M156.398 27.9152C156.07 24.9331 156.159 22.0375 157.172 19.2339C158.865 14.5488 162.769 11.6773 167.743 11.4191C170.679 11.2667 173.431 11.7678 175.783 13.675C176.326 14.1155 176.817 14.6198 177.403 15.1602C177.403 14.1476 177.403 13.1686 177.403 12.1687C179.04 12.1687 180.583 12.1687 182.178 12.1687C182.187 12.3652 182.203 12.5583 182.203 12.7513C182.204 21.4825 182.22 30.2138 182.195 38.945C182.187 41.7996 181.449 44.4338 179.43 46.5699C177.841 48.2518 175.832 49.1787 173.592 49.6007C169.877 50.3004 166.216 50.1598 162.739 48.5397C159.839 47.1891 157.817 45.0457 157.149 41.8104C157.133 41.7318 157.11 41.654 157.101 41.5747C157.074 41.3353 157.053 41.0954 157.025 40.8066C158.594 40.8066 160.148 40.8066 161.736 40.8066C161.878 41.2445 161.994 41.7298 162.189 42.1806C162.936 43.9023 164.343 44.8472 166.089 45.3003C168.347 45.8861 170.635 45.9175 172.888 45.3029C175.377 44.6238 176.923 42.9732 177.246 40.4016C177.464 38.6611 177.426 36.8883 177.502 35.13C177.45 35.1185 177.398 35.107 177.346 35.0954C176.938 35.5217 176.556 35.976 176.119 36.3696C173.68 38.5659 170.738 39.1267 167.587 38.8902C164.96 38.693 162.564 37.8529 160.538 36.1092C158.186 34.0849 157.003 31.4404 156.487 28.4444C156.459 28.2859 156.433 28.1272 156.398 27.9152ZM177.372 26.6518C177.334 25.3492 177.405 24.0326 177.239 22.7468C176.766 19.0957 174.782 16.0705 170.234 15.6865C166.31 15.355 163.034 17.0806 161.669 21.0154C160.927 23.1542 160.827 25.3445 161.21 27.5534C161.892 31.4926 164.368 34.3911 168.65 34.6484C171.293 34.8072 173.7 34.2335 175.464 32.0684C176.715 30.5333 177.171 28.6903 177.372 26.6518Z" fill="#051857"/>
        <path d="M99.4172 40.0799C99.3493 40.2028 99.2678 40.3416 99.1853 40.3423C97.5562 40.3551 95.9268 40.3638 94.2982 40.3325C94.147 40.3296 93.9277 40.0791 93.8636 39.8994C92.8124 36.9542 91.7811 34.0019 90.745 31.0513C90.6984 30.9187 90.6476 30.7876 90.5905 30.6332C85.03 30.6332 79.464 30.6332 73.8685 30.6332C73.0203 33.0523 72.1718 35.4722 71.3234 37.8921C71.078 38.5921 70.8501 39.2991 70.5748 39.9871C70.5126 40.1425 70.2877 40.3343 70.1351 40.3365C68.4472 40.3614 66.7588 40.3521 65 40.3521C65.053 40.1587 65.0824 40.0097 65.134 39.8689C69.8283 27.0728 74.5259 14.2779 79.2117 1.47869C79.3449 1.11505 79.5154 0.995564 79.9002 1.00041C81.6283 1.02217 83.3568 1.0099 85.1247 1.0099C89.8877 14.0268 94.6454 27.0291 99.4172 40.0799ZM81.5919 8.24084C79.6198 14.0769 77.6477 19.913 75.6699 25.7659C80.09 25.7659 84.4414 25.7659 88.8551 25.7659C86.6603 19.2847 84.4822 12.8529 82.2623 6.29749C82.0165 7.01429 81.8215 7.58298 81.5919 8.24084Z" fill="#051857"/>
        <path d="M129.664 15.3688C131.376 10.6944 133.076 6.06544 134.765 1.43274C134.875 1.13056 135.006 0.995354 135.357 1.00012C136.986 1.02225 138.615 1.02212 140.244 1.00037C140.601 0.995598 140.714 1.14335 140.824 1.44569C143.98 10.0883 147.147 18.7268 150.31 27.3669C151.812 31.4709 153.309 35.5767 154.807 39.682C154.88 39.8831 154.944 40.0877 155.033 40.3511C153.249 40.3511 151.524 40.3627 149.8 40.3302C149.654 40.3275 149.446 40.0537 149.379 39.8659C148.562 37.5818 147.765 35.2902 146.963 33.0006C146.731 32.3384 146.482 31.6815 146.275 31.0115C146.184 30.7148 146.057 30.6013 145.733 30.6019C140.423 30.6125 135.113 30.6158 129.803 30.5976C129.369 30.5961 129.319 30.8575 129.222 31.1335C128.208 34.0284 127.188 36.9211 126.196 39.8234C126.056 40.2329 125.875 40.3714 125.439 40.3637C123.816 40.3351 122.192 40.3523 120.484 40.3523C123.555 31.9962 126.602 23.7049 129.664 15.3688ZM137.18 8.09629C135.192 13.9755 133.205 19.8547 131.202 25.7768C135.633 25.7768 139.989 25.7768 144.395 25.7768C142.208 19.3166 140.034 12.8917 137.81 6.3205C137.577 6.96685 137.39 7.48518 137.18 8.09629Z" fill="#051857"/>
        <path d="M226.817 16.8008C224.592 18.1665 223.498 20.1528 223.483 22.6862C223.45 28.3383 223.473 33.9907 223.473 39.6429C223.473 39.8594 223.473 40.0758 223.473 40.3214C221.863 40.3214 220.305 40.3214 218.713 40.3214C218.713 30.9283 218.713 21.5669 218.713 12.1754C220.296 12.1754 221.854 12.1754 223.462 12.1754C223.462 13.1248 223.462 14.0591 223.462 14.9946C224.323 14.3297 225.092 13.5855 225.992 13.0695C229.311 11.1655 232.849 10.831 236.444 12.0869C239.736 13.2365 241.382 15.7788 241.812 19.1605C241.905 19.8957 241.919 20.6447 241.92 21.3873C241.928 27.462 241.924 33.5367 241.924 39.6113C241.924 39.8305 241.924 40.0497 241.924 40.3105C240.331 40.3105 238.772 40.3105 237.122 40.3105C237.122 40.0892 237.122 39.8583 237.122 39.6275C237.122 33.6735 237.14 27.7195 237.104 21.7657C237.098 20.8564 236.964 19.9089 236.681 19.0477C235.954 16.8395 234.253 15.8365 232.021 15.675C230.202 15.5435 228.459 15.8586 226.817 16.8008Z" fill="#051857"/>
        <path d="M253.278 4.17626C253.278 6.84771 253.278 9.46003 253.278 12.1241C255.07 12.1241 256.832 12.1241 258.629 12.1241C258.629 13.5554 258.629 14.9355 258.629 16.374C256.882 16.374 255.122 16.374 253.278 16.374C253.278 16.6458 253.278 16.86 253.278 17.0742C253.278 22.3236 253.278 27.573 253.278 32.8224C253.278 32.9029 253.277 32.9833 253.279 33.0638C253.312 35.0523 253.987 35.8607 255.952 36.0854C256.822 36.1848 257.712 36.1021 258.629 36.1021C258.629 37.4933 258.629 38.8719 258.629 40.3128C256.962 40.6845 255.275 40.777 253.571 40.5564C252.518 40.42 251.544 40.0755 250.702 39.4084C249.368 38.3506 248.844 36.8737 248.62 35.2663C248.518 34.5327 248.491 33.7838 248.49 33.0418C248.479 27.7321 248.484 22.4223 248.484 17.1126C248.484 16.8939 248.484 16.6753 248.484 16.4041C247.123 16.4041 245.805 16.4041 244.451 16.4041C244.451 14.976 244.451 13.6002 244.451 12.1718C245.775 12.1718 247.092 12.1718 248.46 12.1718C248.46 9.07251 248.46 6.02479 248.46 2.93796C250.07 2.93796 251.628 2.93796 253.278 2.93796C253.278 3.33204 253.278 3.72458 253.278 4.17626Z" fill="#051857"/>
    </symbol>
</svg>
