<svg width="0" height="0" style="position: absolute;" xmlns="http://www.w3.org/2000/svg">
    <symbol id="rd-icon-spotter" viewBox="0 0 56 57" fill="none">
        <path d="M19.8175 38.4003C19.8175 40.1887 21.2307 40.3412 21.9411 40.1492C22.3185 40.0472 24.3081 36.1003 24.5537 33.0713V31.2775C19.8017 29.9335 18.291 23.3073 18.4062 19.0977C18.4062 18.5169 19.074 17.9726 19.411 18.5023C20.1407 16.0873 20.0847 16.3489 20.8268 15.746C21.304 15.6604 22.0479 14.9756 22.1813 13.8859C22.248 15.4723 28.0042 18.3332 29.2308 18.1886C30.4575 18.044 30.3013 18.8753 31.2228 18.7313C32.1442 18.5874 32.9477 18.4453 33.0942 18.5023C33.2201 18.5512 33.2166 19.1361 33.7374 19.1361C35.3214 17.0049 38.8158 16.2561 39.0462 19.7553C39.2094 22.1553 37.3326 25.4049 34.6638 24.5553C33.9894 25.7589 33.229 26.9123 32.3886 28.0065C32.279 28.6279 32.2196 29.2572 32.211 29.8881C32.4174 29.4705 32.768 30.0112 32.744 30.5584L33.3058 35.3364C34.4939 35.8767 38.5889 37.0105 39.4237 36.9292C40.2586 36.8478 40.3655 39.2366 39.4237 33.4606C38.9887 30.7924 39.7227 20.4319 39.4237 18.5023C39.0877 16.9855 38.0237 12.4492 36.234 11.0833C34.7859 9.97817 33.7374 9.43213 31.6569 8.73186C30.2271 8.32359 29.7602 8.14864 27.2216 8.32315C26.6618 8.36163 24.46 8.92125 23.7804 9.23949C23.1007 9.55773 21.3805 10.3346 20.6562 11.0833C19.4817 12.2974 17.8517 13.6688 16.6517 16.1565C15.3844 19.5495 15.1739 21.3008 15.1738 24.0498C15.3885 27.3194 16.6024 36.3597 16.6963 37.1627C16.6963 37.1627 16.7663 37.5716 16.8227 37.699C16.9707 38.0334 18.4956 39.7717 18.8182 39.4496C18.5287 38.1204 19.4733 38.2765 19.8175 38.4003Z" fill="#96B9FF"/>
        <path d="M25.675 20.2885L25.6945 20.3236L25.7091 20.3617C25.7996 20.6022 26.0697 20.8313 26.4523 21.0219C26.814 21.202 27.1755 21.2979 27.2961 21.3285C27.453 21.3684 27.5271 21.3953 27.6769 21.4184C27.8225 21.4408 28.0405 21.4585 28.4152 21.4535C28.8023 21.4484 28.9743 21.4335 29.0783 21.4164C29.1904 21.3979 29.2088 21.3834 29.4074 21.3305C29.547 21.2933 29.8601 21.2045 30.1681 21.0346C30.4831 20.8607 30.7272 20.6383 30.8273 20.3656L30.839 20.3334L30.8556 20.3031L30.8615 20.2914C30.8673 20.2795 30.8761 20.2593 30.8879 20.2328C30.9114 20.1797 30.9448 20.1005 30.9777 20.0014C31.0445 19.7999 31.1066 19.5326 31.1066 19.2504C31.1065 19.1047 31.0403 18.9592 30.8254 18.8129C30.5982 18.6584 30.2392 18.5324 29.7716 18.4701C28.7742 18.3374 27.8425 18.2875 26.8087 18.4672C26.2773 18.5596 25.9271 18.6808 25.716 18.8236C25.5355 18.9458 25.4618 19.0773 25.4533 19.2729C25.4407 19.5636 25.4972 19.8235 25.5597 20.0131C25.5907 20.1069 25.6223 20.1807 25.6447 20.2289C25.6559 20.2529 25.6648 20.2706 25.6701 20.2807C25.6716 20.2837 25.6731 20.2859 25.674 20.2875L25.675 20.2885ZM32.1066 19.2504C32.1066 19.6727 32.0151 20.05 31.9269 20.3158C31.8824 20.4501 31.8374 20.5601 31.8029 20.6381C31.7856 20.6772 31.7701 20.7092 31.7589 20.7319C31.7535 20.743 31.7488 20.7524 31.7453 20.7592C31.5177 21.3283 31.0499 21.6897 30.6515 21.9096C30.2349 22.1395 29.8273 22.2531 29.6652 22.2963C29.5626 22.3236 29.4151 22.3741 29.2414 22.4027C29.0594 22.4327 28.8243 22.4482 28.4279 22.4535C28.0185 22.459 27.7419 22.4401 27.5246 22.4067C27.3118 22.3739 27.154 22.3247 27.05 22.2983C26.9094 22.2626 26.4648 22.1459 26.006 21.9174C25.5778 21.7041 25.0288 21.3396 24.7902 20.7543C24.7886 20.7512 24.7861 20.748 24.7843 20.7445C24.7723 20.7215 24.7566 20.6899 24.7384 20.6508C24.702 20.5725 24.6554 20.4625 24.6105 20.3266C24.5214 20.0564 24.435 19.6724 24.4543 19.2289C24.4777 18.6902 24.7366 18.2795 25.1564 17.9955C25.5458 17.7321 26.0645 17.5814 26.6369 17.4819C27.8106 17.2778 28.8547 17.3393 29.9035 17.4789C30.4593 17.5529 30.9863 17.7136 31.3879 17.9867C31.8011 18.268 32.1065 18.692 32.1066 19.2504Z" fill="#192642"/>
        <path d="M22.9286 19.2041C22.9286 19.0606 22.8644 18.9215 22.6669 18.7832C22.4566 18.6363 22.1224 18.5152 21.6835 18.4551C20.74 18.3259 19.861 18.2779 18.8866 18.4522C18.3852 18.5419 18.0598 18.6585 17.8651 18.794C17.7006 18.9085 17.6301 19.0325 17.622 19.2247C17.61 19.5086 17.6643 19.7626 17.7235 19.9473C17.7528 20.0386 17.7824 20.1105 17.8036 20.1573C17.8141 20.1805 17.8221 20.1974 17.827 20.2071C17.8286 20.2101 17.8301 20.2123 17.8309 20.2139L17.8505 20.2491L17.8641 20.2872C17.9487 20.5185 18.2002 20.7382 18.5585 20.9219C18.8983 21.0961 19.239 21.1892 19.3524 21.2188C19.5031 21.2582 19.5703 21.2826 19.7098 21.3047C19.845 21.3261 20.0487 21.3438 20.4022 21.3389C20.769 21.3339 20.9298 21.3199 21.0253 21.3038C21.1292 21.2861 21.1417 21.2734 21.3339 21.2207C21.4652 21.1848 21.7583 21.0984 22.0468 20.9346C22.3409 20.7676 22.5698 20.5547 22.6639 20.2911L22.6747 20.2588L22.6903 20.2286C22.6913 20.2265 22.6937 20.223 22.6962 20.2178C22.7017 20.2062 22.7105 20.1869 22.7216 20.1612C22.7438 20.1095 22.7744 20.032 22.8055 19.9356C22.8688 19.7394 22.9285 19.4794 22.9286 19.2041ZM23.9286 19.2041C23.9285 19.6156 23.8413 19.9829 23.7577 20.2422C23.7154 20.3733 23.6723 20.4805 23.6395 20.5567C23.6231 20.5949 23.6091 20.6263 23.5985 20.6485C23.5934 20.6593 23.5891 20.6682 23.5858 20.6748C23.5847 20.6771 23.5828 20.6789 23.5819 20.6807C23.3644 21.2342 22.9214 21.5887 22.5409 21.8047C22.1422 22.0311 21.752 22.1423 21.5975 22.1846C21.5039 22.2103 21.3592 22.2608 21.1923 22.2891C21.0167 22.3188 20.7917 22.3337 20.4159 22.3389C20.0266 22.3443 19.7624 22.3261 19.5536 22.293C19.3493 22.2607 19.1962 22.2118 19.0995 22.1866C18.9654 22.1515 18.5406 22.0371 18.1024 21.8125C17.6926 21.6025 17.1686 21.2436 16.9413 20.67C16.9398 20.6671 16.938 20.6643 16.9364 20.6612C16.9249 20.6386 16.9098 20.6077 16.8925 20.5694C16.8579 20.4929 16.8139 20.3855 16.7714 20.253C16.6868 19.9893 16.6047 19.6149 16.6229 19.1827C16.6451 18.6588 16.8892 18.2543 17.2938 17.9727C17.6683 17.7122 18.1662 17.5652 18.7108 17.4678C19.8289 17.2678 20.8231 17.3275 21.8192 17.4639C22.3497 17.5366 22.8545 17.6942 23.2401 17.9639C23.6385 18.2427 23.9286 18.6606 23.9286 19.2041Z" fill="#192642"/>
        <path d="M21.1314 20.4832C21.9138 20.4832 21.7074 19.5664 21.021 19.5664C20.2338 19.5664 20.445 20.4832 21.1314 20.4832Z" fill="#192642"/>
        <path d="M27.4961 20.3494C28.2785 20.3494 28.0721 19.4326 27.3857 19.4326C26.5793 19.4326 26.8097 20.3494 27.4961 20.3494Z" fill="#192642"/>
        <path d="M23.4631 26.4844C23.4205 26.533 23.3881 26.5897 23.368 26.6511C23.3479 26.7125 23.3403 26.7774 23.3458 26.8418C23.3514 26.9062 23.3698 26.9688 23.4001 27.0259C23.4304 27.0829 23.4719 27.1333 23.5222 27.174C24.7297 28.1839 26.3559 27.8913 27.5354 26.9748C28.0435 26.585 27.1318 25.823 26.6771 26.1751C26.0835 26.6371 24.9337 27.1986 24.2454 26.6293C24.0463 26.4398 23.7027 26.2872 23.4631 26.4844Z" fill="#192642"/>
        <path d="M23.7498 24.1647C24.2854 24.4205 24.8493 24.6123 25.4298 24.7359C25.9722 24.9087 25.7507 23.7969 25.1459 23.6049C24.7235 23.4657 24.848 23.5697 24.4352 23.3969C23.8544 23.1617 24.1914 22.4607 24.3306 22.0239C24.5706 21.2751 23.625 21.2271 23.4186 21.8799C23.169 22.6623 22.881 23.6319 23.7498 24.1647Z" fill="#192642"/>
        <path d="M32.2219 29.8482C32.1883 29.9237 32.1703 30.0052 32.1691 30.0878C32.0827 31.7937 32.2123 33.9213 33.2395 35.3589C34.2667 36.7964 36.3931 37.1366 38.0395 37.5056C40.4395 38.0471 43.3675 38.2196 45.5803 39.3553C48.1435 40.673 47.6683 43.0243 47.9611 45.4969C48.0427 46.1773 48.9787 46.2875 48.8875 45.4969C48.6475 43.4843 48.8923 42.2783 47.9611 40.4047C47.1211 38.7228 45.7099 38.1477 43.9723 37.6638C41.5723 36.9881 39.0523 36.6718 36.6331 36.0106C35.3083 35.6512 34.1371 35.3445 33.5611 33.9692C33.1566 32.8185 33.0012 31.5952 33.1051 30.3801C33.1291 29.8578 32.4475 29.4217 32.2219 29.8482Z" fill="#192642"/>
        <path d="M22.7647 36.2912C23.0337 36.2292 23.3022 36.3971 23.3643 36.6662C23.4263 36.9353 23.2583 37.2038 22.9893 37.2658C20.6745 37.7995 19.2076 37.7551 17.9121 37.6223C16.6256 37.4903 15.6081 37.2895 14.0635 37.466C13.5591 37.5237 13.0215 37.8069 12.4668 38.2971C11.9157 38.7841 11.3829 39.4443 10.8906 40.1857C9.90585 41.6691 9.12672 43.4133 8.71387 44.5617C8.6205 44.8215 8.334 44.9567 8.07423 44.8635C7.81451 44.7701 7.67937 44.4836 7.77247 44.2238C8.20493 43.0208 9.01656 41.1997 10.0566 39.633C10.5767 38.8496 11.1653 38.1131 11.8047 37.548C12.4405 36.9862 13.1636 36.5618 13.9502 36.4719C15.6328 36.2796 16.7983 36.5025 18.0137 36.6271C19.2203 36.7509 20.5751 36.796 22.7647 36.2912Z" fill="#192642"/>
        <path d="M35.9157 35.9784C36.1907 36.0018 36.395 36.2434 36.3718 36.5184L36.1032 39.6835C36.0799 39.9585 35.8383 40.1627 35.5632 40.1395C35.2881 40.1162 35.0839 39.8745 35.1071 39.5995L35.3747 36.4344C35.398 36.1593 35.6406 35.9551 35.9157 35.9784Z" fill="#192642"/>
        <path d="M23.6393 38.1545C23.8006 37.9304 24.1135 37.8791 24.3376 38.0402C25.5673 38.9252 29.1129 40.298 33.112 38.3654C33.3606 38.2453 33.6597 38.3493 33.78 38.5978C33.9001 38.8464 33.796 39.1456 33.5475 39.2658C29.1509 41.3906 25.2151 39.9044 23.7536 38.8527C23.5295 38.6915 23.4782 38.3786 23.6393 38.1545Z" fill="#192642"/>
        <path d="M39.0666 19.736C38.8362 16.2464 35.3418 16.9856 33.7578 19.1168C33.345 19.5968 33.9402 20.3552 34.4442 19.7024C35.745 17.9456 38.1882 17.9888 38.0298 20.6288C37.929 22.2464 36.5898 24.1712 34.833 23.3648C34.5594 23.24 34.2378 23.5088 34.113 23.7248C32.2122 27.008 31.1047 30.8966 24.8123 30.288C21.7967 29.9963 20.2429 29.1681 19.5282 22.1558C19.4647 21.7668 19.7278 22.2874 19.6646 21.8787C19.5818 21.3438 19.1913 18.2227 19.4157 18.2638C19.4157 18.2638 18.3933 17.9182 18.3789 18.499C18.3788 29.5616 20.8471 30.512 24.4122 31.328C24.5909 32.2515 24.5197 33.206 24.2058 34.0928C23.9226 34.784 24.7722 35.0864 25.0554 34.3952C25.3949 33.4756 25.4715 32.3022 25.3624 31.328C30.666 31.0547 31.1638 29.9933 32.9302 27.7901C33.7683 26.7144 34.0026 25.7582 34.6794 24.5744C37.353 25.3856 39.2298 22.1312 39.0666 19.736Z" fill="#192642"/>
        <path d="M31.3417 18.798C32.0701 18.356 32.7896 18.2282 33.5039 18.1826C33.7713 18.1656 34.1141 18.0741 34.5751 17.9264C35.0163 17.7851 35.5578 17.5957 36.1498 17.4294C36.4155 17.3548 36.6916 17.5099 36.7663 17.7756C36.841 18.0414 36.686 18.3175 36.4202 18.3922C35.8509 18.552 35.3545 18.7265 34.88 18.8785C34.4255 19.024 33.9744 19.155 33.5682 19.181C32.9352 19.2213 32.3953 19.3276 31.8597 19.6527C31.6238 19.7957 31.3169 19.721 31.1736 19.4853C31.0303 19.2492 31.1056 18.9413 31.3417 18.798Z" fill="#192642"/>
        <path fill-rule="evenodd" clip-rule="evenodd" d="M36.3767 41.5898C36.3767 43.4657 35.2257 44.5994 34.227 44.5994V45.4593C35.2257 45.4593 36.3767 46.593 36.3767 48.4688H37.2365C37.2365 46.8544 38.0887 45.7895 38.9627 45.5246C39.1902 45.455 39.3862 45.2667 39.3862 45.0293C39.3862 44.792 39.1902 44.6033 38.9627 44.5345C38.0887 44.2684 37.2365 43.2038 37.2365 41.5898H36.3767ZM35.6071 45.0293C36.1037 45.3591 36.5194 45.8617 36.8066 46.4748C37.0938 45.8617 37.5096 45.3591 38.0061 45.0293C37.5096 44.6996 37.0938 44.197 36.8066 43.5839C36.5194 44.197 36.1037 44.6996 35.6071 45.0293Z" fill="#192642"/>
        <path fill-rule="evenodd" clip-rule="evenodd" d="M32.5072 45.0293C32.5072 46.3458 31.6177 47.179 30.7875 47.179V48.0389C31.6177 48.0389 32.5072 48.8721 32.5072 50.1886H33.3671C33.3671 48.8721 34.2566 48.0389 35.0869 48.0389V47.179C34.2566 47.179 33.3671 46.3458 33.3671 45.0293H32.5072ZM32.1168 47.609C32.4543 47.8502 32.7344 48.1629 32.9372 48.5247C33.1399 48.1629 33.42 47.8502 33.7575 47.609C33.42 47.3677 33.1399 47.0551 32.9372 46.6932C32.7344 47.0551 32.4543 47.3677 32.1168 47.609Z" fill="#192642"/>
        <path d="M31.9773 42.3499C31.7758 42.5514 31.5024 42.6647 31.2173 42.6647V43.0946C31.5024 43.0946 31.7758 43.2079 31.9773 43.4094C32.1789 43.611 32.2922 43.8844 32.2922 44.1695H32.7221C32.7221 43.8844 32.8353 43.611 33.0369 43.4094C33.2385 43.2079 33.5119 43.0946 33.7969 43.0946V42.6647C33.5119 42.6647 33.2385 42.5514 33.0369 42.3499C32.8353 42.1483 32.7221 41.8749 32.7221 41.5898H32.2922C32.2922 41.8749 32.1789 42.1483 31.9773 42.3499Z" fill="#192642"/>
        <path d="M38.2307 49.0331C38.3113 48.9525 38.3113 48.7913 38.3113 48.4688H38.7412C38.7412 48.7913 38.7412 48.9525 38.8218 49.0331C38.9024 49.1138 39.0637 49.1138 39.3861 49.1138V49.5437C39.0637 49.5437 38.9024 49.5437 38.8218 49.6243C38.7412 49.7049 38.7412 49.8661 38.7412 50.1886H38.3113C38.3113 49.8661 38.3113 49.7049 38.2307 49.6243C38.1501 49.5437 37.9888 49.5437 37.6664 49.5437V49.1138C37.9888 49.1138 38.1501 49.1138 38.2307 49.0331Z" fill="#192642"/>
        <path d="M17.527 44.1053C17.3738 43.6868 15.6445 28.1522 15.4298 24.6973L24.1897 34.9535C24.1897 34.9535 24.1307 45.7418 23.2918 46.4237C22.4529 47.1056 17.6934 44.5601 17.527 44.1053Z" fill="#96B9FF"/>
        <path d="M55.8201 28.8456C55.4451 18.7953 51.1592 9.28073 41.8911 4.04129C36.9319 1.26504 31.2406 0.0764798 25.5847 0.63593C19.9289 1.19538 14.5807 3.47592 10.2616 7.16995C-7.44968 22.4383 0.714851 53.1035 24.3513 56.1786C36.6731 57.8179 47.7091 51.0891 53.0236 40.2031C53.6879 38.8423 52.1342 37.3959 51.3628 38.9816C37.0374 67.1503 -4.11744 51.6249 3.52208 21.1204C11.2045 -3.18036 45.9841 -2.63391 52.5414 21.8918C53.2744 24.4248 53.7024 27.0362 53.8164 29.6706C53.8164 31.4064 55.8736 30.1956 55.8201 28.8456Z" fill="#192642"/>
    </symbol>
    <symbol id="rd-icon-paper-plane" viewBox="0 0 21 21" fill="none">
        <path d="M19.5314 0.422363L0.868896 7.68001V9.61884L8.72789 12.5634L11.6724 20.4224H13.6113L20.8689 1.75984L19.5314 0.422363ZM12.6678 17.1461L10.7497 12.0242L12.8233 9.95062C12.9931 9.75227 13.0819 9.49714 13.0718 9.2362C13.0617 8.97526 12.9536 8.72774 12.7689 8.54309C12.5843 8.35844 12.3367 8.25026 12.0758 8.24018C11.8149 8.23011 11.5597 8.31886 11.3614 8.48872L9.28777 10.5623L4.15557 8.63387L18.1317 3.1699L12.6678 17.1461Z" fill="white"/>
    </symbol>
</svg>
